<?xml version="1.0" encoding="UTF-8"?>
<svg id="Layer_2" data-name="Layer 2" xmlns="http://www.w3.org/2000/svg" xmlns:xlink="http://www.w3.org/1999/xlink" viewBox="0 0 247.4 247.4">
  <defs>
    <style>
      .cls-1 {
        fill: none;
      }

      .cls-2 {
        fill: #14191a;
      }

      .cls-3 {
        fill: #47c3d0;
        fill-rule: evenodd;
      }

      .cls-4 {
        clip-path: url(#clippath);
      }
    </style>
    <clipPath id="clippath">
      <rect class="cls-1" width="247.4" height="247.4"/>
    </clipPath>
  </defs>
  <g id="Layer_1-2" data-name="Layer 1">
    <g>
      <g class="cls-4">
        <path class="cls-3" d="M54.8,0h137.7c30.3,0,54.9,24.6,54.9,54.9v137.7c0,30.3-24.6,54.9-54.9,54.9H54.8C24.5,247.5-.1,222.9-.1,192.6V54.8C-.1,24.5,24.5-.1,54.8-.1h0v.1Z"/>
      </g>
      <path class="cls-2" d="M72.8,120.1c3.5,0,6.1,2,7.4,5.3h.3c2.1-3.6,4.6-5.3,7.9-5.3,5.3,0,8.5,4.5,8.5,11.6v17.5c0,.5-.4.9-.9.9h-5.7c-.5,0-.9-.4-.9-.9v-16.9c0-3.4-1.3-5.3-3.9-5.3s-4.2,2.2-4.2,6.3v15.9c0,.5-.4.9-.9.9h-5.7c-.5,0-.9-.4-.9-.9v-16.9c0-3.4-1.3-5.3-3.9-5.3s-4.2,2.2-4.2,6.3v15.9c0,.5-.4.9-.9.9h-5.7c-.5,0-.9-.4-.9-.9v-27.6c0-.5.4-.9.9-.9h4.7c.5,0,.9.4,1,.9l.7,3.5h.3c1.3-3.2,3.7-5,7-5h0Z"/>
      <path class="cls-2" d="M124.4,121.7v27.6c0,.5-.4.9-.9.9h-4.7c-.6,0-.9-.4-1-.9l-.7-3.5h-.3c-1.3,3.3-3.7,5-7.1,5-5.3,0-8.6-4.4-8.6-11.5v-17.7c0-.5.4-.9.9-.9h5.7c.5,0,.9.4.9.9v17.1c0,3.4,1.3,5.2,3.9,5.2s4.3-2.1,4.3-6.2v-16.1c0-.5.4-.9.9-.9h5.7c.5,0,.9.4.9.9h0l.1.1Z"/>
      <path class="cls-2" d="M142.9,129.1c-.4-1.9-1.8-3.1-3.9-3.1s-3.4,1.1-3.4,2.6,1.1,2.4,3.3,2.9l4.1,1c5.1,1.3,7.3,4.2,7.3,8.6s-4.7,9.6-11.1,9.6-10.6-3-11.4-9.4c0-.6.2-1,.8-1.1l4.9-.9c.6-.1,1,.1,1.1.9.5,3.1,2.2,4.6,4.6,4.6s3.8-1.2,3.8-3.1-1.1-2.8-3.4-3.4l-3.1-.7c-6.2-1.5-8.2-4.5-8.2-8.6s4.7-9,10.6-9,9.7,3.1,10.7,7.7c.1.6,0,1-.7,1.1l-5.1.8c-.6,0-1-.1-1.1-.7h0l.2.2Z"/>
      <path class="cls-2" d="M153.8,149.3v-27.6c0-.5.4-.9.9-.9h5.7c.5,0,.9.4.9.9v27.6c0,.5-.4.9-.9.9h-5.7c-.5,0-.9-.4-.9-.9h0ZM157.6,109.7c2.4,0,4.4,1.6,4.4,4.4s-2,4.4-4.4,4.4-4.4-1.7-4.4-4.4,2-4.4,4.4-4.4h0Z"/>
      <path class="cls-2" d="M189,141c-1.3,6.4-5.9,9.9-11.4,9.9s-12.7-6.6-12.7-15.4,5.4-15.3,12.7-15.3,10.1,3.5,11.4,9.9c.1.6-.2,1-.7,1.1l-5.1.9c-.6.1-.9-.1-1.1-.7-.8-3.6-2.3-5.2-4.5-5.2-3.3,0-5,3.3-5,9.4s1.7,9.4,5,9.4,3.7-1.6,4.5-5.2c.1-.6.5-.8,1.1-.7l5.1.9c.6.1.8.5.7,1.1h0v-.1Z"/>
      <path class="cls-2" d="M154,165c.4.8,1.4.8,3,.5,4.2-.9,9.6-1,10.5.3s-1.1,6.3-3.4,10c-.8,1.4-1.2,2.3-.5,3,.2.2.4.3.7.3.8,0,1.9-.8,3-1.8,2.2-1.9,4-4.4,4.9-7.2,1-2.7,1.4-6.5.4-7.9s-4.7-2.3-7.5-2.3c-3,0-5.9.7-8.5,2.1-1.6.9-3.1,1.9-2.6,3h0Z"/>
      <path class="cls-2" d="M75.5,163.5c.2.7.8,1.7,1.7,2.7,10.9,13.4,28.3,19.3,45.2,19.3s29-4.5,38.1-12.3c1.6-1.4,2.4-2.5,2.4-3.3s-.1-.6-.4-.9c-.8-.8-1.9-.2-3.4.5-8.4,4.4-21.4,7.5-35.1,7.5s-32.1-3.9-44.7-14c-1.2-1-2.5-1.9-3.4-1.2-.3.2-.6.8-.3,1.8h0l-.1-.1Z"/>
      <path class="cls-2" d="M49.2,99.1c2.9,0,4.5-2.7,4.5-7.6v-1.9c-.6-.1-1.2-.2-1.9-.2-3.9,0-6.3,2.1-6.3,5.5s1.4,4.1,3.6,4.1h0l.1.1ZM46.3,104.7c-5.1,0-8.5-3.6-8.5-8.8s5-10.4,12.9-10.4,2.1,0,2.9.2v-.7c0-3.6-1.3-5.3-4-5.3s-3.5,1.2-4.2,3.4c-.2.6-.5,1-1.1.8l-4.9-.8c-.6-.1-.9-.6-.7-1.3,1.3-5,5.4-7.7,11.5-7.7s11,4,11,11.3v17.8c0,.5-.4.9-.9.9h-4.7c-.5,0-.9-.4-1-.9l-.7-3.3h-.3c-1.3,3.1-3.8,4.9-7.3,4.9h0v-.1Z"/>
      <path class="cls-2" d="M80.3,74c3.5,0,6.1,2,7.4,5.3h.3c2.1-3.6,4.6-5.3,7.9-5.3,5.3,0,8.5,4.5,8.5,11.6v17.5c0,.5-.4.9-.9.9h-5.7c-.5,0-.9-.4-.9-.9v-16.9c0-3.4-1.3-5.3-3.9-5.3s-4.2,2.2-4.2,6.3v15.9c0,.5-.4.9-.9.9h-5.7c-.5,0-.9-.4-.9-.9v-16.9c0-3.4-1.3-5.3-3.9-5.3s-4.2,2.2-4.2,6.3v15.9c0,.5-.4.9-.9.9h-5.7c-.5,0-.9-.4-.9-.9v-27.6c0-.5.4-.9.9-.9h4.7c.5,0,.9.4,1,.9l.7,3.5h.3c1.3-3.2,3.7-5,7-5h0Z"/>
      <path class="cls-2" d="M119,99.1c2.9,0,4.5-2.7,4.5-7.6v-1.9c-.6-.1-1.2-.2-1.9-.2-3.9,0-6.3,2.1-6.3,5.5s1.4,4.1,3.6,4.1h0l.1.1ZM116.1,104.7c-5.1,0-8.5-3.6-8.5-8.8s5-10.4,12.9-10.4,2.1,0,2.9.2v-.7c0-3.6-1.3-5.3-4-5.3s-3.5,1.2-4.2,3.4c-.2.6-.5,1-1.1.8l-4.9-.8c-.6-.1-.9-.6-.7-1.3,1.3-5,5.4-7.7,11.5-7.7s11,4,11,11.3v17.8c0,.5-.4.9-.9.9h-4.7c-.5,0-.9-.4-1-.9l-.7-3.3h-.3c-1.3,3.1-3.8,4.9-7.3,4.9h0v-.1Z"/>
      <path class="cls-2" d="M134.1,98.9c0-.5.1-.9.4-1.3l11.5-17h-10.7c-.5,0-.9-.4-.9-.9v-4.1c0-.5.4-.9.9-.9h18.6c.5,0,.9.4.9.9v4.2c0,.5-.1.9-.4,1.3l-11.6,17h11.7c.6,0,.9.4.9.9v4.1c0,.5-.4.9-.9.9h-19.5c-.5,0-.9-.4-.9-.9v-4.2h0Z"/>
      <path class="cls-2" d="M169.6,98.7c3.2,0,5-3.3,5-9.3s-1.8-9.3-5-9.3-5,3.3-5,9.3,1.8,9.3,5,9.3h0ZM156.8,89.4c0-8.8,5.5-15.3,12.7-15.3s12.8,6.6,12.8,15.3-5.5,15.3-12.8,15.3-12.7-6.6-12.7-15.3h0Z"/>
      <path class="cls-2" d="M200.7,74c5.4,0,8.7,4.5,8.7,11.6v17.5c0,.5-.4.9-.9.9h-5.7c-.5,0-.9-.4-.9-.9v-16.9c0-3.4-1.5-5.3-4.1-5.3s-4.4,2.2-4.4,6.3v15.9c0,.5-.4.9-.9.9h-5.7c-.5,0-.9-.4-.9-.9v-27.6c0-.5.4-.9.9-.9h4.7c.5,0,.9.4,1,.9l.7,3.5h.3c1.3-3.2,3.8-5,7.2-5h0Z"/>
    </g>
  </g>
</svg>