<?xml version="1.0" encoding="UTF-8"?>
<svg id="Layer_2" data-name="Layer 2" xmlns="http://www.w3.org/2000/svg" xmlns:xlink="http://www.w3.org/1999/xlink" viewBox="0 0 230.5 230.5">
  <defs>
    <style>
      .cls-1 {
        fill: #fff;
      }

      .cls-1, .cls-2 {
        fill-rule: evenodd;
      }

      .cls-2 {
        fill: url(#linear-gradient);
      }
    </style>
    <linearGradient id="linear-gradient" x1="115.25" y1="1043.31" x2="115.25" y2="1267.81" gradientTransform="translate(0 1272.81) scale(1 -1)" gradientUnits="userSpaceOnUse">
      <stop offset="0" stop-color="#fa233b"/>
      <stop offset="1" stop-color="#fb5c74"/>
    </linearGradient>
  </defs>
  <g id="Layer_1-2" data-name="Layer 1">
    <g>
      <path class="cls-2" d="M230.5,72.1v-8.3c0-2.3,0-4.6-.1-7-.1-5-.4-10.1-1.3-15.1-.9-5.1-2.4-9.8-4.7-14.4-2.3-4.5-5.3-8.7-8.9-12.3-3.6-3.6-7.7-6.6-12.3-8.9-4.6-2.3-9.3-3.8-14.4-4.7-5-.9-10.1-1.2-15.1-1.3-2.3,0-4.6,0-7-.1H63.8c-2.3,0-4.6,0-7,.1-5,.1-10.1.4-15.1,1.3-5.1.9-9.8,2.4-14.4,4.7-4.5,2.3-8.7,5.3-12.3,8.9-3.6,3.6-6.6,7.7-8.9,12.3-2.3,4.6-3.8,9.3-4.7,14.4C.5,46.7.2,51.8.1,56.8c0,2.3,0,4.6-.1,7v102.9c0,2.3,0,4.6.1,7,.1,5,.4,10.1,1.3,15.1.9,5.1,2.4,9.8,4.7,14.4,2.3,4.5,5.3,8.7,8.9,12.3,3.6,3.6,7.7,6.6,12.3,8.9,4.6,2.3,9.3,3.8,14.4,4.7,5,.9,10.1,1.2,15.1,1.3,2.3,0,4.6,0,7,.1h102.9c2.3,0,4.6,0,7-.1,5-.1,10.1-.4,15.1-1.3,5.1-.9,9.8-2.4,14.4-4.7,4.5-2.3,8.7-5.3,12.3-8.9,3.6-3.6,6.6-7.7,8.9-12.3,2.3-4.6,3.8-9.3,4.7-14.4.9-5,1.2-10.1,1.3-15.1,0-2.3,0-4.6.1-7v-8.3s0-86.3,0-86.3Z"/>
      <g id="Glyph">
        <path class="cls-1" d="M163,36.9c-.6,0-5.5.9-6.1,1l-68.5,13.8h0c-1.8.4-3.2,1-4.3,1.9-1.3,1.1-2,2.6-2.3,4.4,0,.4-.2,1.2-.2,2.3v85.7c0,2-.2,4-1.5,5.6-1.4,1.7-3,2.2-5,2.6-1.5.3-3,.6-4.5.9-5.7,1.1-9.3,1.9-12.7,3.2-3.2,1.2-5.6,2.8-7.5,4.8-3.8,3.9-5.3,9.3-4.8,14.3.5,4.3,2.4,8.4,5.7,11.4,2.2,2,5,3.6,8.3,4.3,3.4.7,7,.4,12.4-.6,2.8-.6,5.5-1.5,8-3s4.6-3.4,6.3-5.8c1.7-2.4,2.8-5.1,3.4-7.9.6-2.9.8-5.6.8-8.5v-74.3c0-4,1.1-5,4.3-5.8,0,0,56.9-11.5,59.6-12,3.7-.7,5.4.3,5.4,4.2v50.7c0,2,0,4-1.4,5.7s-3,2.2-5,2.6c-1.5.3-3,.6-4.5.9-5.7,1.1-9.3,1.9-12.7,3.2-3.2,1.2-5.6,2.8-7.5,4.8-3.8,3.9-5.4,9.3-4.9,14.3.5,4.3,2.5,8.4,5.8,11.4,2.2,2,5,3.6,8.3,4.2,3.4.7,7,.4,12.4-.6,2.8-.6,5.5-1.4,8-2.9s4.6-3.4,6.3-5.8c1.7-2.4,2.8-5.1,3.4-7.9.6-2.9.6-5.6.6-8.5V42.8c0-3.9-2.1-6.4-5.8-6.1l.2.2Z"/>
      </g>
    </g>
  </g>
</svg>