<?xml version="1.0" encoding="UTF-8"?>
<svg id="Layer_2" data-name="Layer 2" xmlns="http://www.w3.org/2000/svg" xmlns:xlink="http://www.w3.org/1999/xlink" viewBox="0 0 332.49 228.75">
  <defs>
    <style>
      .cls-1 {
        fill: none;
      }

      .cls-2 {
        fill: #ffa100;
      }

      .cls-3 {
        clip-path: url(#clippath);
      }
    </style>
    <clipPath id="clippath">
      <path class="cls-1" d="M277.19,0c-.53.02-1.04.05-1.54.1h0c-1.6,0-3.1.1-4.4.9h0c-1.3.5-2.3,1.3-2.6,2.2h0c-.1.4-.6,1.8-1.2,3.9h0c-.4,1.3-.8,2.8-1.3,4.6h0c-1.2,4-2.7,9.1-4.4,15.1h0c-7.6,25-22.7,73.6-31.6,102.1h0c-1.8,5-3.3,9.2-4.7,13.9h0c-3.3,11.3-1.3-9.9-1.3-9.9h0s1.8-75.3,2.6-87.4h0c.8-12.1-16.5-12.7-21.7-8h0c-5.2,4.7-41.2,77.9-44.3,78.5h0c-3.1.6-14.8-20.4-17.5-39.4h0c-2.7-19-20.6-.9-20.6-.9h0s-23.2,28.8-28.9,33.4h0c-5.7,4.7-3.2-11.9-7-15.1h0c-3.9-3.2-10.3-7.5-21.9,7.2h0c-10.5,13.3-22.4,5.9-29.4,3.2h0c-11.5-4.4-11.6,9.2-12,15h0c4.6,3.5,12.5,8.5,20.2,9.2h0c9.28.85,16.21-2.69,21.15-6.24h0c4.91-3.53,7.85-7.05,9.15-6.26h0c2.5,1.5,4.4,27.2,9.8,34.7h0c.8.5,1.6.8,2.3.8h0l-.2-.3c14.3-1.5,30.2-29.6,37.7-35.9h0c1.7-1.6,3.5-2.8,4.8,0h0c.7,1.4,4.6,14.3,8.5,26.9h0c2.5,7.4,4.9,14.6,6.4,19.7h0c.4,1.3.5,3,1,4.5h0c.1.3.2.5.2.6h0c.1.1.2.3.2.4h0c1,2.3,4.7,3,7.1,3.3h0c.5-.1.9-.1,1.5-.1h0s33.5-55.2,37.8-63.2h0c4.2-7.8,3.2,85.4,3.4,102.7h0c.1,3.1,11.4,15.5,20.4,18.2h0c3.6,1.1,6.2-.5,8.1-3.1h0c1.2-2.4,3-6.9,5.2-12.8h0c1.8-5.1,15.6-46.8,16.4-48.8h0c7.3-22.6,13.9-43.4,15.4-46.7h0c1.7-3.7,2-2.1,1.7,1.7h0v1.1h0c-.4,4.8-2,23.2-2,25h0c0,1.8,20.3,14.5,29.4,17.4h0c9.1,2.9,15.7-25.2,20-25.8h0c4.3-.7,16.5-4.1,22.9-4.7h0s1.8-17-1.2-21.6h0c-1.6-1-4.4-1.8-7.6-2.2h0c-7.7-.1-18.8,2.8-22.9,7.7h0c-.5.6-.9,1-1.3,1.2h0c-.3.5-.6.9-.8,1.4h0c-6.6,14-6,10.8-6,10.8h0s3.2-66.6,7.4-99h0c1.7-13,0-20.3-2.7-24.3h0c-.2-.4-.5-.7-.7-1h0c-.6-.7-1.1-1.1-1.4-1.3h-.1l-.2-.1h0c-1.5-1.1-3-1.6-4.4-1.6h0c-3.41-.99-7.12-1.58-10.48-1.7h-2.38ZM4.56,106c-5,1.4-5.7,7.1-3,10h0c2.7,2.9,6.5,2.1,10.6,2h0c4.1-.1,6.1-6.8,3-10h0c-1.77-1.83-4.98-2.22-7.4-2.22h0c-1.82,0-3.2.22-3.2.22Z"/>
    </clipPath>
  </defs>
  <g id="Layer_1-2" data-name="Layer 1">
    <g class="cls-3">
      <rect class="cls-2" x="-6.04" y="-5.9" width="344.6" height="240.8"/>
    </g>
  </g>
</svg>