<?xml version="1.0" encoding="UTF-8"?>
<svg id="Layer_2" data-name="Layer 2" xmlns="http://www.w3.org/2000/svg" viewBox="0 0 243.8 243.8">
  <defs>
    <style>
      .cls-1 {
        fill: aqua;
        fill-rule: evenodd;
      }
    </style>
  </defs>
  <g id="Layer_1-2" data-name="Layer 1">
    <path class="cls-1" d="M121.9,0C54.6,0,0,54.6,0,121.9s54.6,121.9,121.9,121.9,121.9-54.6,121.9-121.9S189.2,0,121.9,0h0ZM141.9,190.8h-62.4c-8.8,0-15.3-8.3-13.4-16.9l8.4-37.5c0-.4.5-.6.8-.6l36.1,4.8c-2.3,2.9-3.6,6.6-3.6,10.6v.3c.2,10.4,9.5,18.5,20.1,16.8,8.1-1.3,14.1-8.3,14.4-16.5.3-9.6-7.2-16.5-16.5-17.8l-4.7-.6-43.7-5.8c-.4,0-.7-.5-.6-.9l10.7-47.7c0-.4.4-.7.8-.6l28.5,3.8c-1.4,2.2-2.2,4.9-2.1,7.7.1,8.9,8.4,15.9,17.7,13.7,6.4-1.5,10.8-7.1,11-13.6.2-7.8-5.4-13.6-13.5-14.7l-8.3-1.1-31.3-4.2c-.4,0-.7-.5-.7-.9l2.7-11.9c.5-2.4,2.7-4.2,5.2-4.2h44.4c17.3,0,31.3,14.1,31.3,31.5s-11.3,29-26.7,31.1c-1,.1-3.6.3-3.9.3.2,0,2.8.1,4,.3,18.4,2.2,32.3,18.1,32.3,37.1s-16.6,37.5-37.1,37.5h.1Z"/>
  </g>
</svg>