<?xml version="1.0" encoding="UTF-8"?>
<svg id="Layer_2" data-name="Layer 2" xmlns="http://www.w3.org/2000/svg" viewBox="0 0 230.58 210.37">
  <defs>
    <style>
      .cls-1 {
        fill: #fff;
      }

      .cls-2 {
        fill: #601414;
        opacity: .9;
      }
    </style>
  </defs>
  <g id="Layer_1-2" data-name="Layer 1">
    <g>
      <path d="M59.07,34.5c-4.47,15.71,9.18,32.55,4.24,48.12-2.56,8.07-9.66,13.87-17.03,18.04-7.37,4.17-15.42,7.26-22.11,12.46-6.15,4.78-11.03,11.41-12.92,18.96-1.89,7.56-.59,16.03,4.18,22.2,5.14,6.65,13.39,9.9,20.76,13.95,13.31,7.32,24.55,17.96,37.82,25.36,13.27,7.4,30.14,11.2,43.44,3.86,13.42-7.4,19.08-23.57,22.38-38.54,1.91-8.67,3.61-17.85,9.31-24.66,4.22-5.04,10.18-8.22,15.9-11.47,7.2-4.09,14.24-8.48,21.08-13.15,9.48-6.47,18.83-13.75,24.57-23.68,5.75-9.93,7.18-23.11.81-32.65-2.67-4-6.6-7.3-8.01-11.9-1.19-3.91-.35-8.1-.16-12.18.33-7.26-1.61-14.74-6.13-20.43-4.53-5.68-11.78-9.33-19.02-8.73-8.65.71-15.68,6.9-22.72,11.97-7.05,5.07-16.17,9.39-24.14,5.95C90.41.33,64.27,16.19,59.07,34.5Z"/>
      <path class="cls-2" d="M98.25,37.79c-5.69,3.76-12.5,5.32-19.14,6.83-9.74,2.2-19.48,4.4-29.22,6.6-9,2.03-18.96,4.72-23.79,12.58-7.14,11.6.18,29.41-9.71,38.77-2.41,2.28-5.53,3.64-8.17,5.65C2.63,112.42-.55,119.61.08,126.57c.63,6.96,5.04,13.47,11.28,16.63,13.6,6.89,32.56-1.92,44.18,7.95,5.21,4.42,7.3,11.56,7.74,18.38s-.5,13.67-.1,20.49c.42,7.28,2.97,15.23,9.39,18.69,8.07,4.35,18.2-.48,24.64-7s11.23-14.84,18.91-19.86c6.6-4.31,14.62-5.7,22.36-7.21,7.58-1.48,15.13-3.17,22.61-5.07,7.12-1.81,14.4-3.9,20.19-8.43,9.2-7.2,13.02-19.21,15.52-30.62,1.38-6.31,2.61-12.92,6.53-18.05,2.44-3.2,5.77-5.59,8.88-8.14,7.33-6.01,13.84-13.46,16.82-22.46,2.97-9,1.84-19.74-4.57-26.73-5.88-6.41-14.9-8.69-22.3-13.26-8.14-5.03-14.18-12.74-21.1-19.35-9.8-9.36-22.01-16.77-35.46-18.35-11.39-1.34-23.88,2.08-32.07,10.36-6.89,6.97-6.39,17.39-15.27,23.25Z"/>
      <g>
        <g>
          <path class="cls-1" d="M123.98,50.17c5.65.58,10.73,1.83,15.24,3.74,4.51,1.91,8.3,4.35,11.36,7.32,3.06,2.98,5.31,6.43,6.76,10.36,1.45,3.93,1.93,8.19,1.46,12.78-.35,3.38-1.29,6.31-2.81,8.79-1.53,2.48-3.34,4.67-5.44,6.57-2.1,1.91-4.32,3.57-6.66,4.98-2.34,1.42-4.53,2.72-6.55,3.9-2.03,1.18-3.73,2.33-5.12,3.46-1.39,1.13-2.15,2.34-2.28,3.64l-.46,4.4c-.11,1.05-1.05,1.81-2.1,1.71l-21.54-2.23c-1.05-.11-1.81-1.05-1.71-2.1l.9-8.68c.18-1.79.83-3.43,1.94-4.92,1.11-1.5,2.46-2.92,4.06-4.26,1.6-1.35,3.3-2.66,5.09-3.94,1.79-1.28,3.49-2.63,5.1-4.05,1.61-1.42,2.97-2.92,4.09-4.52,1.12-1.59,1.78-3.4,1.99-5.43.14-1.35.06-2.68-.25-3.98-.3-1.3-.83-2.46-1.58-3.49-.75-1.03-1.7-1.9-2.84-2.6-1.15-.7-2.49-1.14-4.04-1.3-2.03-.21-3.71-.02-5.04.58-1.33.59-2.41,1.43-3.23,2.52-.82,1.09-1.43,2.37-1.82,3.84-.4,1.47-.67,2.98-.83,4.52-.07.68-.14,1.34-.21,1.99,0,0,0,.01,0,.02-.11,1.08-1.03,1.89-2.1,1.78l-23.54-2.43c-.97-.1-1.71-.92-1.72-1.9,0-.37,0-.73,0-1.09,0-.9.04-1.84.14-2.8.5-4.83,1.96-9.07,4.39-12.72,2.43-3.65,5.58-6.66,9.46-9.01,3.88-2.36,8.37-4,13.47-4.94,5.1-.94,10.57-1.1,16.41-.5Z"/>
          <rect class="cls-1" x="102.61" y="129.15" width="24.05" height="25.76" rx="1.91" ry="1.91" transform="translate(-38.43 241.44) rotate(-84.1)"/>
        </g>
        <g>
          <path class="cls-1" d="M127.59,128.03c-.28,0-.56-.01-.84-.04l-21.54-2.23c-4.15-.43-7.28-3.9-7.28-8.07,0-.28.01-.56.04-.84l.9-8.67c.13-1.25.4-2.49.82-3.66l1.89.66c-.36,1.03-.6,2.1-.71,3.2l-.9,8.67c-.02.21-.03.43-.03.64,0,3.14,2.36,5.75,5.49,6.08l21.54,2.23c.21.02.42.03.63.03h.16s.05,2,.05,2h-.21ZM149.21,108.67l-1.12-1.65c1.83-1.25,3.62-2.65,5.29-4.17,1.99-1.81,3.78-3.87,5.32-6.14l1.65,1.12c-1.63,2.4-3.53,4.59-5.64,6.5-1.75,1.59-3.6,3.05-5.51,4.35ZM92.17,90.45l-10.98-1.13c-1.62-.17-3.14-.81-4.39-1.85l1.29-1.53c.94.79,2.08,1.27,3.3,1.39l10.98,1.13-.21,1.99ZM83.35,59.35l-1.53-1.28c2.53-3.03,5.59-5.64,9.07-7.76,4.51-2.74,9.75-4.67,15.57-5.74,5.61-1.03,11.67-1.23,18.05-.58l-.2,1.99c-6.19-.63-12.06-.44-17.48.56-5.58,1.02-10.59,2.87-14.89,5.48-3.3,2-6.19,4.47-8.58,7.33Z"/>
          <path class="cls-1" d="M124.5,161.33c-.28,0-.55-.01-.83-.04l-21.82-2.26c-4.15-.43-7.28-3.9-7.28-8.07,0-.28.01-.56.04-.84l.14-1.32,1.99.2-.14,1.32c-.02.21-.03.42-.03.63,0,3.14,2.36,5.75,5.49,6.08l21.82,2.26c.21.02.42.03.63.03l.09,2h-.09ZM133.92,141.04l-1.99-.21.74-7.11c.02-.22.03-.43.03-.64,0-1.1-.3-2.18-.87-3.13l1.71-1.03c.76,1.25,1.15,2.69,1.15,4.16,0,.28-.01.56-.04.85l-.74,7.11Z"/>
        </g>
      </g>
    </g>
  </g>
</svg>