<?xml version="1.0" encoding="UTF-8"?>
<svg id="Layer_2" data-name="Layer 2" xmlns="http://www.w3.org/2000/svg" viewBox="0 0 250 250">
  <defs>
    <style>
      .cls-1 {
        fill: #a238ff;
      }
    </style>
  </defs>
  <g id="Layer_1-2" data-name="Layer 1">
    <g>
      <path class="cls-1" d="M7.2,104.5c4,0,7.2-13.1,7.2-29.2s-3.2-29.2-7.2-29.2S0,59.2,0,75.3s3.2,29.2,7.2,29.2Z"/>
      <path class="cls-1" d="M219.1,16.3c-3.8,0-7.1,8.4-9.5,21.8-3.8-23-9.8-38.1-16.7-38.1s-15.2,21.2-18.6,52.1c-3.3-22.4-8.3-36.7-13.8-36.7s-14.4,28.1-16.9,67.4c-4.6-20.1-11.3-32.7-18.7-32.7s-14.1,12.6-18.7,32.7c-2.5-39.2-9.1-67.4-17-67.4s-10.6,14.3-13.8,36.8C72.1,21.3,65,.1,56.8.1s-13,15.1-16.7,38.2c-2.3-13.4-5.7-21.9-9.5-21.9-7,0-12.7,29.3-12.7,65.4s5.7,65.3,12.7,65.3,5.6-5,7.7-13.3c3.3,30.5,10.4,51.4,18.5,51.4s11.9-12.5,15.7-32.4c2.6,37.7,9.1,64.5,16.7,64.5s9.1-10.6,12.4-27.9c3.9,35.6,12.8,60.6,23.3,60.6s19.4-25,23.3-60.6c3.2,17.2,7.6,27.9,12.4,27.9,7.6,0,14.1-26.8,16.7-64.5,3.8,19.8,9.4,32.4,15.7,32.4s15.2-20.9,18.5-51.4c2.2,8.3,4.8,13.3,7.7,13.3,7,0,12.7-29.2,12.7-65.3-.2-36.1-5.9-65.4-12.8-65.4h0v-.1Z"/>
      <path class="cls-1" d="M242.8,104.5c4,0,7.2-13.1,7.2-29.2s-3.2-29.2-7.2-29.2-7.2,13.1-7.2,29.2,3.2,29.2,7.2,29.2Z"/>
    </g>
  </g>
</svg>