<svg width="139" height="65" viewBox="0 0 139 65" fill="none" xmlns="http://www.w3.org/2000/svg">
<g clip-path="url(#clip0_29_45)">
<path d="M62.8398 0H20C8.95431 0 0 8.95432 0 20V44.8179C0 55.8636 8.95428 64.8179 20 64.8179H62.8397C73.8854 64.8179 82.8397 55.8636 82.8397 44.8179V20C82.8397 8.9543 73.8855 0 62.8398 0Z" fill="#6F0C0C"/>
<path d="M43.096 29.1013C46.44 39.3078 42.6904 49.2657 34.7157 51.3421C26.7438 53.4184 17.5668 46.8296 14.2228 36.6231C10.8788 26.4166 14.6284 16.4587 22.6032 14.3823C30.5751 12.3059 39.7521 18.8948 43.096 29.1013Z" fill="white"/>
<path d="M39.2823 34.9298C41.0418 40.2933 39.0693 45.5282 34.8791 46.6219C30.6889 47.7128 25.8655 44.2502 24.106 38.8866C22.3464 33.5231 24.319 28.2883 28.5092 27.1945C32.6994 26.1037 37.5227 29.5663 39.2823 34.9298Z" fill="#7D4E24"/>
<path d="M35.1417 36.0089C35.9412 38.445 35.0454 40.8227 33.1429 41.3169C31.2404 41.8141 29.049 40.2407 28.2524 37.8046C27.4529 35.3685 28.3487 32.9909 30.2512 32.4966C32.1537 31.9995 34.3451 33.5728 35.1417 36.0089Z" fill="#1D1D1B"/>
<path d="M34.348 34.9152C34.7478 36.1347 34.2984 37.322 33.3471 37.5706C32.3959 37.8192 31.3016 37.0325 30.9019 35.813C30.5021 34.5935 30.9515 33.4061 31.9027 33.1576C32.854 32.909 33.9482 33.6957 34.348 34.9152Z" fill="white"/>
<path d="M69.7166 33.9121C68.278 42.2937 61.771 48.3591 55.1822 47.4613C48.5934 46.5634 44.4149 39.0387 45.8535 30.6571C47.292 22.2755 53.7991 16.2101 60.3878 17.108C66.9766 18.0058 71.1551 25.5305 69.7166 33.9121Z" fill="white"/>
<path d="M64.1053 36.2254C63.3437 40.6647 59.8976 43.8758 56.4078 43.4021C52.9179 42.9254 50.7061 38.9422 51.4677 34.5028C52.2292 30.0635 55.6753 26.8524 59.1652 27.3261C62.6551 27.8028 64.8669 31.786 64.1053 36.2254Z" fill="#7D4E24"/>
<path d="M61.6659 37.2606C61.2428 39.7289 59.3257 41.5158 57.3853 41.2496C55.4448 40.9864 54.2134 38.7697 54.6395 36.3014C55.0626 33.8331 56.9797 32.0463 58.9201 32.3124C60.8606 32.5756 62.0919 34.7924 61.6659 37.2606Z" fill="#1D1D1B"/>
<path d="M60.9933 35.9601C61.2729 34.7384 60.7266 33.5704 59.7732 33.3512C58.8197 33.132 57.8202 33.9446 57.5405 35.1663C57.2609 36.3879 57.8072 37.5559 58.7606 37.7751C59.7141 37.9943 60.7136 37.1817 60.9933 35.9601Z" fill="white"/>
<path d="M97.9144 19.0776C97.9144 19.5765 97.8308 20.0062 97.6673 20.3667C97.5038 20.7272 97.2822 21.0331 97.0061 21.2843C96.7299 21.5356 96.4138 21.7431 96.0541 21.9034C95.6944 22.0636 95.3202 22.1874 94.9314 22.2784C94.5427 22.3695 94.1503 22.4277 93.7579 22.4569C93.3655 22.486 92.9985 22.5006 92.6606 22.5006C92.3227 22.5006 91.9776 22.486 91.6179 22.4605C91.2582 22.435 90.8985 22.3877 90.5424 22.3221C90.1863 22.2566 89.8339 22.1692 89.4887 22.0563C89.1436 21.9434 88.8166 21.805 88.5077 21.6375L88.4932 10.0286C88.7948 9.89019 89.1181 9.76638 89.4597 9.6535C89.8012 9.54061 90.1464 9.44958 90.5024 9.37311C90.8549 9.29664 91.2109 9.24202 91.5597 9.20196C91.9122 9.1619 92.25 9.1437 92.5807 9.1437C92.9658 9.1437 93.351 9.16919 93.7433 9.22381C94.1357 9.27843 94.5136 9.36947 94.8733 9.49328C95.2366 9.62073 95.5745 9.78459 95.887 9.98487C96.1995 10.1852 96.4756 10.4328 96.7118 10.7277C96.9479 11.0227 97.1296 11.365 97.264 11.7546C97.3948 12.1443 97.4639 12.5958 97.4639 13.1056C97.4639 13.4406 97.4203 13.7574 97.3331 14.0524C97.2459 14.3473 97.1223 14.6095 96.9588 14.8462C96.7953 15.0793 96.5991 15.2795 96.3666 15.4471C96.1341 15.6109 95.8725 15.7347 95.5818 15.8112C95.9342 15.9132 96.254 16.0625 96.541 16.2627C96.8317 16.4594 97.0751 16.6997 97.2786 16.9838C97.482 17.2678 97.6383 17.5846 97.7473 17.9378C97.8563 18.291 97.9144 18.6697 97.9144 19.0739V19.0776ZM92.6424 16.8781C92.4862 16.8781 92.3336 16.8964 92.1883 16.9328L92.1556 18.9866C92.2355 19.0048 92.3155 19.023 92.3954 19.0375C92.4753 19.0521 92.5516 19.0594 92.6279 19.0594C92.7405 19.0594 92.8641 19.0448 93.0021 19.0193C93.1366 18.9938 93.2637 18.9392 93.3836 18.8555C93.5035 18.7753 93.6016 18.6661 93.6779 18.5277C93.7579 18.3894 93.7942 18.2073 93.7942 17.9779C93.7942 17.7485 93.7542 17.5627 93.6779 17.4207C93.598 17.2751 93.5035 17.1622 93.3909 17.0821C93.2783 17.002 93.1548 16.9473 93.0167 16.9182C92.8823 16.8927 92.7587 16.8781 92.6424 16.8781ZM93.7942 13.9395C93.7942 13.7647 93.7615 13.6154 93.6961 13.4916C93.6307 13.3678 93.5508 13.2695 93.4563 13.1894C93.3618 13.1129 93.2601 13.0546 93.1475 13.0182C93.0348 12.9818 92.9367 12.9636 92.8532 12.9636C92.7442 12.9636 92.6388 12.9818 92.5371 13.0182C92.4354 13.0546 92.3336 13.0947 92.2355 13.1457L92.1883 15.1448C92.3118 15.1448 92.468 15.1339 92.6497 15.1084C92.835 15.0829 93.0094 15.0319 93.1802 14.9518C93.3509 14.8717 93.4963 14.7515 93.6125 14.5913C93.7324 14.4311 93.7906 14.2126 93.7906 13.9395H93.7942Z" fill="white"/>
<path d="M102.848 9.59524L101.955 21.8706L98.5321 22.0672V9.85014L102.845 9.59888L102.848 9.59524Z" fill="white"/>
<path d="M113.607 20.4468C113.352 20.8 113.04 21.1095 112.666 21.3753C112.291 21.6412 111.892 21.8597 111.467 22.0345C111.038 22.2092 110.602 22.3403 110.151 22.4277C109.701 22.5151 109.276 22.5588 108.869 22.5588C108.084 22.5588 107.365 22.4022 106.703 22.0891C106.042 21.7759 105.475 21.3462 104.996 20.7964C104.516 20.2465 104.142 19.5983 103.873 18.8555C103.604 18.109 103.466 17.3078 103.466 16.4485C103.466 15.793 103.535 15.1521 103.67 14.5258C103.804 13.8994 103.997 13.3059 104.251 12.7487C104.502 12.1916 104.81 11.6818 105.17 11.2157C105.533 10.7496 105.944 10.349 106.402 10.014C106.86 9.67899 107.365 9.41681 107.91 9.23109C108.455 9.04538 109.04 8.9507 109.661 8.9507C109.893 8.9507 110.141 8.96162 110.406 8.98347C110.671 9.00532 110.933 9.04174 111.198 9.09272C111.459 9.1437 111.714 9.21288 111.964 9.30392C112.212 9.39496 112.44 9.5042 112.648 9.63893L112.422 13.0801C112.121 12.9527 111.808 12.8689 111.485 12.8216C111.161 12.7742 110.849 12.7524 110.54 12.7524C110.108 12.7524 109.705 12.8252 109.327 12.9745C108.952 13.1202 108.625 13.335 108.346 13.6081C108.066 13.8849 107.848 14.2199 107.684 14.6168C107.521 15.0137 107.441 15.4616 107.441 15.9605C107.441 16.2737 107.477 16.5759 107.554 16.8672C107.63 17.1585 107.743 17.4171 107.899 17.6429C108.051 17.8686 108.244 18.0507 108.473 18.1891C108.702 18.3274 108.967 18.3966 109.272 18.3966C109.479 18.3966 109.69 18.3675 109.908 18.3056C110.126 18.2473 110.315 18.1417 110.471 17.9997L110.504 17.2969L108.556 17.2605L108.654 14.5549C109.461 14.5258 110.264 14.5003 111.071 14.4784C111.877 14.4566 112.687 14.4274 113.505 14.391L113.603 20.4468H113.607Z" fill="white"/>
<path d="M96.3012 25.9599C96.2685 26.5244 96.2394 27.0852 96.2104 27.635C96.1849 28.1885 96.1486 28.7457 96.105 29.3101L92.6679 29.5067L92.5879 30.6429H95.0041L94.8261 33.4359L92.3917 33.5269L92.3118 34.8415H95.7489C95.7162 35.5006 95.6835 36.1597 95.6472 36.8115C95.6109 37.4633 95.5818 38.1151 95.5527 38.7706L88.5622 38.949L88.8202 25.9527H96.2976L96.3012 25.9599Z" fill="white"/>
<path d="M107.659 26.7538L103.197 33.6762L102.987 39.3168H99.1425L99.2406 33.7126L96.9225 27.0269L101.057 26.4515L101.708 30.3443L103.768 26.4515L107.659 26.7574V26.7538Z" fill="white"/>
<path d="M116.016 25.9599C115.983 26.5244 115.954 27.0852 115.925 27.635C115.899 28.1885 115.863 28.7457 115.819 29.3101L112.382 29.5067L112.302 30.6429H114.719L114.54 33.4359L112.106 33.5269L112.026 34.8415H115.463C115.431 35.5006 115.398 36.1597 115.362 36.8115C115.325 37.4633 115.296 38.1151 115.267 38.7706L108.277 38.949L108.535 25.9527H116.012L116.016 25.9599Z" fill="white"/>
<path d="M125.135 34.1605C125.135 34.9835 125.008 35.7045 124.75 36.3199C124.492 36.9353 124.143 37.4487 123.696 37.8566C123.25 38.2644 122.73 38.5703 122.13 38.7742C121.535 38.9782 120.892 39.0801 120.205 39.0801C119.94 39.0801 119.649 39.0401 119.333 38.9636C119.017 38.8871 118.697 38.7888 118.374 38.6723C118.05 38.5557 117.738 38.4283 117.436 38.2936C117.135 38.1588 116.869 38.0314 116.637 37.9112L116.993 34.1969C117.451 34.5028 117.963 34.7359 118.523 34.8961C119.082 35.0563 119.631 35.1364 120.172 35.1364C120.274 35.1364 120.397 35.1328 120.546 35.1218C120.692 35.1146 120.83 35.0854 120.964 35.0417C121.095 34.998 121.208 34.9289 121.302 34.8378C121.393 34.7468 121.44 34.6193 121.44 34.4518C121.44 34.3389 121.407 34.2406 121.342 34.1605C121.277 34.0804 121.193 34.0148 121.091 33.9639C120.99 33.9129 120.873 33.8728 120.743 33.8473C120.612 33.8218 120.485 33.8 120.361 33.7891C120.238 33.7782 120.121 33.7709 120.012 33.7709H119.754C119.289 33.7709 118.868 33.6798 118.486 33.5014C118.105 33.323 117.778 33.0717 117.505 32.7476C117.233 32.4272 117.018 32.0448 116.869 31.6042C116.717 31.1636 116.641 30.6829 116.641 30.1658C116.641 29.4557 116.768 28.8221 117.026 28.2613C117.284 27.7006 117.625 27.2235 118.054 26.8266C118.483 26.4333 118.977 26.1311 119.533 25.9199C120.089 25.7087 120.666 25.6031 121.258 25.6031C121.524 25.6031 121.796 25.614 122.076 25.6359C122.356 25.6577 122.636 25.6941 122.915 25.7487C123.195 25.8034 123.464 25.8725 123.729 25.9563C123.994 26.0401 124.245 26.1457 124.485 26.2731L124.176 29.9328C123.809 29.7944 123.424 29.6779 123.021 29.5868C122.617 29.4958 122.225 29.4485 121.84 29.4485C121.771 29.4485 121.68 29.4485 121.567 29.4521C121.455 29.4557 121.342 29.463 121.219 29.4776C121.099 29.4922 120.975 29.514 120.848 29.5468C120.724 29.5759 120.612 29.616 120.517 29.6669C120.419 29.7179 120.343 29.7871 120.281 29.8709C120.223 29.9546 120.194 30.0529 120.201 30.1695C120.205 30.3006 120.252 30.4098 120.336 30.4899C120.419 30.57 120.528 30.6356 120.659 30.6793C120.79 30.723 120.939 30.7557 121.099 30.774C121.258 30.7922 121.415 30.8031 121.575 30.8067C121.731 30.8067 121.876 30.8067 122.014 30.8067C122.149 30.8067 122.261 30.8067 122.348 30.8213C122.781 30.8504 123.17 30.9524 123.515 31.1272C123.86 31.302 124.154 31.5314 124.394 31.8227C124.634 32.1104 124.819 32.4563 124.946 32.8532C125.073 33.2538 125.135 33.6944 125.135 34.1751V34.1605Z" fill="white"/>
<path d="M102.285 42.5504L101.461 55.7288L97.3767 55.9073L97.413 48.9594L95.5673 54.5599H93.9904L92.5734 49.5493L92.5553 55.3647L88.4169 55.4922L88.5949 43.0857L93.1984 42.9073L95.0259 48.8501L97.4639 42.5468H102.282L102.285 42.5504Z" fill="white"/>
<path d="M113.777 45.6566C113.777 46.1008 113.756 46.5888 113.716 47.1204C113.672 47.6521 113.607 48.202 113.509 48.7737C113.414 49.3417 113.291 49.9171 113.138 50.5034C112.985 51.086 112.796 51.6468 112.568 52.1857C112.342 52.7246 112.077 53.2272 111.776 53.6969C111.474 54.1667 111.129 54.5782 110.736 54.9277C110.344 55.2773 109.908 55.5541 109.425 55.7543C108.942 55.9546 108.404 56.0566 107.812 56.0566C107.118 56.0566 106.518 55.9437 106.006 55.7216C105.494 55.4994 105.058 55.1936 104.694 54.8148C104.331 54.4361 104.033 53.9919 103.797 53.4857C103.564 52.9796 103.383 52.4443 103.252 51.8798C103.121 51.3154 103.03 50.7364 102.979 50.1465C102.928 49.5566 102.903 48.9885 102.903 48.4459C102.903 47.6084 102.947 46.7709 103.03 45.937C103.114 45.1031 103.234 44.2692 103.39 43.4353L107.583 43.5955C107.423 44.535 107.281 45.4782 107.165 46.4286C107.049 47.3754 106.99 48.3294 106.99 49.2871C106.99 49.3891 106.994 49.5384 107.005 49.7387C107.012 49.9389 107.03 50.1647 107.056 50.4123C107.081 50.6599 107.114 50.9148 107.158 51.177C107.201 51.4392 107.263 51.6759 107.343 51.8908C107.423 52.1056 107.514 52.284 107.626 52.4188C107.739 52.5535 107.866 52.6263 108.015 52.6263C108.189 52.6263 108.342 52.5426 108.48 52.3787C108.618 52.2148 108.738 51.9927 108.843 51.7196C108.949 51.4429 109.04 51.126 109.116 50.7692C109.192 50.4087 109.258 50.0373 109.312 49.6476C109.367 49.258 109.41 48.8683 109.443 48.4824C109.476 48.0964 109.501 47.7322 109.523 47.3972C109.545 47.0622 109.556 46.7672 109.563 46.5087C109.57 46.2501 109.57 46.0608 109.57 45.9333C109.57 45.4672 109.563 45.0011 109.548 44.5387C109.534 44.0762 109.512 43.6137 109.483 43.1513H113.676C113.748 43.9779 113.785 44.8154 113.785 45.6639L113.777 45.6566Z" fill="white"/>
<path d="M123.787 50.8639C123.787 51.6832 123.646 52.4006 123.362 53.0123C123.079 53.6241 122.69 54.1375 122.2 54.5417C121.709 54.9459 121.131 55.2555 120.47 55.4557C119.809 55.6597 119.1 55.7616 118.345 55.7616C118.05 55.7616 117.731 55.7216 117.382 55.6451C117.033 55.5686 116.677 55.4703 116.321 55.3538C115.965 55.2373 115.616 55.1098 115.285 54.9751C114.955 54.8403 114.66 54.7129 114.402 54.5927L114.795 50.893C115.303 51.1989 115.867 51.4319 116.484 51.5885C117.102 51.7487 117.709 51.8252 118.308 51.8252C118.421 51.8252 118.559 51.8216 118.719 51.8106C118.879 51.7997 119.035 51.7742 119.18 51.7305C119.326 51.6868 119.449 51.6176 119.551 51.5302C119.653 51.4429 119.703 51.3118 119.703 51.1443C119.703 51.0314 119.667 50.933 119.594 50.8529C119.522 50.7728 119.431 50.7073 119.318 50.6563C119.206 50.6053 119.075 50.5653 118.933 50.5398C118.791 50.5143 118.65 50.4924 118.512 50.4815C118.374 50.4706 118.246 50.4633 118.127 50.4633H117.84C117.327 50.4633 116.859 50.3723 116.437 50.1938C116.016 50.0154 115.656 49.7641 115.354 49.4437C115.053 49.1232 114.817 48.7445 114.649 48.3039C114.482 47.8633 114.399 47.3863 114.399 46.8728C114.399 46.1664 114.54 45.5328 114.824 44.9756C115.107 44.4148 115.485 43.9415 115.961 43.5482C116.437 43.1549 116.982 42.8563 117.596 42.6451C118.21 42.4339 118.846 42.3319 119.504 42.3319C119.798 42.3319 120.099 42.3429 120.408 42.3647C120.717 42.3866 121.03 42.423 121.335 42.4776C121.644 42.5322 121.942 42.6014 122.236 42.6852C122.53 42.7689 122.806 42.8745 123.068 42.9983L122.726 46.6434C122.319 46.505 121.894 46.3922 121.451 46.2975C121.008 46.2028 120.572 46.1591 120.147 46.1591C120.07 46.1591 119.969 46.1591 119.845 46.1627C119.722 46.1664 119.594 46.1737 119.46 46.1882C119.326 46.2028 119.191 46.2246 119.053 46.2538C118.915 46.2829 118.795 46.323 118.686 46.3739C118.577 46.4249 118.494 46.4905 118.428 46.5742C118.363 46.658 118.334 46.7563 118.337 46.8692C118.345 47.0003 118.392 47.1059 118.486 47.1896C118.581 47.2734 118.697 47.3317 118.846 47.379C118.995 47.4263 119.155 47.4555 119.329 47.4737C119.504 47.4919 119.682 47.5028 119.852 47.5064C120.023 47.5101 120.187 47.5064 120.336 47.5064C120.485 47.5064 120.608 47.5064 120.703 47.521C121.179 47.5501 121.611 47.6521 121.992 47.8269C122.374 48.0017 122.697 48.2311 122.963 48.5188C123.228 48.8064 123.431 49.1487 123.573 49.5457C123.715 49.9426 123.784 50.3832 123.784 50.8602L123.787 50.8639Z" fill="white"/>
<path d="M129.172 43.002L128.187 55.23L124.409 55.4266V43.2532L129.172 43.002Z" fill="white"/>
<path d="M139 43.0165L138.499 46.8036C138.324 46.7563 138.153 46.7235 137.979 46.7053C137.805 46.6871 137.634 46.6798 137.459 46.6798C137.016 46.6798 136.598 46.7381 136.195 46.8546C135.795 46.9711 135.443 47.1496 135.134 47.3899C134.825 47.6303 134.582 47.9289 134.4 48.2894C134.219 48.6499 134.128 49.0686 134.128 49.5566C134.128 49.8661 134.179 50.1356 134.277 50.365C134.375 50.5908 134.513 50.7801 134.695 50.9294C134.876 51.0787 135.087 51.188 135.33 51.2608C135.574 51.3336 135.843 51.37 136.137 51.37C136.359 51.37 136.587 51.3445 136.827 51.2972C137.067 51.2499 137.303 51.188 137.536 51.1078C137.768 51.0277 137.997 50.9403 138.215 50.8384C138.433 50.7364 138.64 50.6308 138.826 50.5252L138.466 54.7457C138.233 54.8658 137.979 54.9714 137.71 55.0661C137.441 55.1608 137.158 55.2409 136.875 55.3101C136.591 55.3793 136.3 55.4303 136.013 55.4667C135.726 55.5031 135.454 55.5213 135.189 55.5213C134.429 55.5213 133.724 55.3793 133.067 55.0989C132.409 54.8185 131.839 54.4325 131.355 53.9409C130.872 53.4493 130.491 52.8703 130.215 52.2039C129.939 51.5375 129.797 50.8165 129.797 50.0445C129.797 49.0213 129.942 48.0563 130.236 47.1496C130.531 46.2429 130.959 45.449 131.526 44.7644C132.093 44.0835 132.798 43.5445 133.637 43.1476C134.477 42.7543 135.443 42.5541 136.533 42.5541C136.944 42.5541 137.369 42.5868 137.801 42.6524C138.233 42.7179 138.637 42.8417 139.007 43.0202L139 43.0165Z" fill="white"/>
</g>
<defs>
<clipPath id="clip0_29_45">
<rect width="139" height="65" fill="white"/>
</clipPath>
</defs>
</svg>
