<?xml version="1.0" encoding="UTF-8"?>
<svg id="Layer_2" data-name="Layer 2" xmlns="http://www.w3.org/2000/svg" xmlns:xlink="http://www.w3.org/1999/xlink" viewBox="0 0 362.7 241.3">
  <defs>
    <style>
      .cls-1 {
        fill: url(#linear-gradient-2);
      }

      .cls-2 {
        fill: url(#linear-gradient);
      }

      .cls-3 {
        fill: #0081fb;
      }
    </style>
    <linearGradient id="linear-gradient" x1="2759.75" y1="-200.12" x2="2848.65" y2="-204.62" gradientTransform="translate(-7692.9 -447.94) scale(2.8 -2.8)" gradientUnits="userSpaceOnUse">
      <stop offset="0" stop-color="#0064e1"/>
      <stop offset=".4" stop-color="#0064e1"/>
      <stop offset=".8" stop-color="#0073ee"/>
      <stop offset="1" stop-color="#0082fb"/>
    </linearGradient>
    <linearGradient id="linear-gradient-2" x1="2766.12" y1="-219.65" x2="2766.12" y2="-186.95" gradientTransform="translate(-7692.9 -447.94) scale(2.8 -2.8)" gradientUnits="userSpaceOnUse">
      <stop offset="0" stop-color="#0082fb"/>
      <stop offset="1" stop-color="#0064e0"/>
    </linearGradient>
  </defs>
  <g id="Layer_1-2" data-name="Layer 1">
    <g>
      <path class="cls-3" d="M39.3,159.3c0,13.8,3,24.5,7,30.9,5.2,8.4,13,12,20.9,12s19.5-2.5,37.6-27.4c14.4-20,31.4-48,42.8-65.5l19.4-29.8c13.5-20.7,29-43.6,46.9-59.2C228.5,7.6,244.2.5,260,.5c26.6,0,51.9,15.4,71.2,44.3,21.2,31.6,31.5,71.4,31.5,112.5s-4.8,42.4-13,56.6c-7.9,13.7-23.3,27.4-49.3,27.4v-39.1c22.2,0,27.8-20.4,27.8-43.8,0-33.3-7.8-70.3-24.9-96.7-12.1-18.7-27.9-30.2-45.2-30.2s-33.8,14.1-50.7,39.3c-9,13.4-18.2,29.7-28.6,48.1l-11.4,20.2c-22.9,40.7-28.8,49.9-40.2,65.2-20.1,26.8-37.3,36.9-59.9,36.9s-43.8-11.6-54.3-29.1C4.4,197.9.2,179.1.2,157.8l39.2,1.4-.1.1Z"/>
      <path class="cls-2" d="M31,47.5C49,19.8,74.9.5,104.6.5s34.3,5.1,52.2,19.7c19.5,15.9,40.4,42.2,66.3,85.5l9.3,15.5c22.5,37.5,35.3,56.7,42.8,65.8,9.6,11.7,16.4,15.2,25.1,15.2,22.2,0,27.8-20.4,27.8-43.8l34.5-1.1c0,24.4-4.8,42.4-13,56.6-7.9,13.7-23.3,27.4-49.3,27.4s-30.4-3.5-46.2-18.4c-12.1-11.4-26.4-31.8-37.3-50.1l-32.5-54.3c-16.3-27.3-31.3-47.6-39.9-56.8-9.3-9.9-21.3-21.8-40.4-21.8s-28.6,10.8-39.6,27.5l-33.3-19.8-.1-.1Z"/>
      <path class="cls-1" d="M103.9,39.3c-15.5,0-28.6,10.8-39.6,27.5-15.5,23.5-25.1,58.4-25.1,92s3,24.5,7,30.9l-33.4,22C4.2,197.4,0,178.7,0,157.4c0-38.8,10.6-79.2,30.9-110.4C48.9,19.3,74.8,0,104.5,0l-.6,39.4v-.1Z"/>
    </g>
  </g>
</svg>