<?xml version="1.0" encoding="UTF-8"?>
<svg id="Layer_2" data-name="Layer 2" xmlns="http://www.w3.org/2000/svg" viewBox="0 0 218.48 218.48">
  <defs>
    <style>
      .cls-1 {
        fill: #15c97f;
      }
    </style>
  </defs>
  <g id="Layer_1-2" data-name="Layer 1">
    <path class="cls-1" d="M113.59.09C53.29-2.31,2.49,44.59.09,104.89s44.5,111.1,104.8,113.5c60.3,2.4,111.1-44.5,113.5-104.8C220.79,53.29,173.89,2.49,113.59.09h0ZM159.69,160.19c-1.4,2.4-4,3.6-6.6,3.2-.8-.1-1.6-.4-2.3-.8-14.4-8.2-30.2-13.6-46.8-15.9-16.6-2.3-33.2-1.5-49.3,2.4-3.5.8-7-1.3-7.9-4.8s1.3-7,4.8-7.9c17.8-4.3,36-5.2,54.2-2.6,18.2,2.6,35.5,8.4,51.4,17.5,3.1,1.8,4.2,5.8,2.4,8.9h.1ZM174.09,131.49c-2.2,4.1-7.4,5.7-11.5,3.4-16.9-9.1-35.2-15.1-54.4-17.8s-38.4-2-57.2,2.2c-1,.2-2,.3-3,.1-3.4-.5-6.3-3-7.1-6.6-1-4.6,1.9-9.1,6.5-10.1,20.7-4.6,42-5.4,63.2-2.4s41.4,9.6,60.1,19.7c4.1,2.2,5.7,7.4,3.4,11.5h0ZM189.99,99.19c-2.1,4-6.5,6.1-10.7,5.5-1.1-.2-2.3-.5-3.4-1.1-19.7-10.2-40.9-17-63-20.1-22.1-3.1-44.4-2.4-66.1,2-5.7,1.1-11.2-2.5-12.3-8.1-1.1-5.7,2.5-11.2,8.1-12.3,24.1-4.9,48.7-5.6,73.1-2.2,24.5,3.4,47.9,10.9,69.7,22.3,5.1,2.7,7.1,9,4.4,14.1h0l.2-.1Z"/>
  </g>
</svg>