<?xml version="1.0" encoding="UTF-8"?>
<svg id="Layer_2" data-name="Layer 2" xmlns="http://www.w3.org/2000/svg" viewBox="0 0 209.8 237.5">
  <defs>
    <style>
      .cls-1 {
        fill: #fe2c55;
      }

      .cls-2 {
        fill: #fff;
      }

      .cls-3 {
        fill: #25f4ee;
      }
    </style>
  </defs>
  <g id="Layer_1-2" data-name="Layer 1">
    <g id="Layer_1-2" data-name="Layer 1-2">
      <g>
        <path class="cls-3" d="M81.7,93.5v-9.3c-3.2-.4-6.4-.7-9.7-.7C32.3,83.5,0,115.8,0,155.5s12.2,45.9,30.7,58.9c-12-12.9-19.3-30.1-19.3-49,0-39.1,31.4-71,70.3-72h0v.1Z"/>
        <path class="cls-3" d="M83.4,198.3c17.7,0,32.2-14.1,32.8-31.6V9.9h28.7c-.6-3.2-.9-6.5-.9-9.9h-39.1v156.8c-.7,17.6-15.2,31.6-32.9,31.6s-10.7-1.4-15.3-3.8c6,8.3,15.7,13.7,26.7,13.7h0Z"/>
        <path class="cls-3" d="M198.4,63.1v-8.7c-10.9,0-21.1-3.2-29.6-8.8,7.6,8.7,17.9,15,29.6,17.5Z"/>
        <path class="cls-1" d="M168.8,45.6c-8.3-9.6-13.4-22-13.4-35.7h-10.5c2.8,14.9,11.6,27.7,23.9,35.7Z"/>
        <path class="cls-1" d="M72,122.6c-18.1,0-32.9,14.8-32.9,32.9s7.2,23.6,17.6,29.1c-3.9-5.4-6.2-12-6.2-19.2,0-18.1,14.8-32.9,32.9-32.9s6.6.6,9.7,1.5v-39.9c-3.2-.4-6.4-.7-9.7-.7s-1.1,0-1.7,0v30.7c-3.1-1-6.3-1.5-9.7-1.5h0Z"/>
        <path class="cls-1" d="M198.4,63.1v30.4c-20.3,0-39.1-6.5-54.4-17.5v79.5c0,39.7-32.3,72-72,72s-29.6-4.8-41.3-13c13.2,14.1,31.9,23,52.7,23,39.7,0,72-32.3,72-72v-79.5c15.3,11,34.1,17.5,54.4,17.5v-39.1c-3.9,0-7.7-.4-11.4-1.2v-.1Z"/>
        <path class="cls-2" d="M144,155.5v-79.5c15.3,11,34.1,17.5,54.4,17.5v-30.4c-11.7-2.5-22-8.8-29.6-17.5-12.3-8-21.1-20.8-23.9-35.7h-28.6v156.8c-.7,17.6-15.2,31.6-32.9,31.6s-20.7-5.4-26.7-13.7c-10.5-5.5-17.6-16.5-17.6-29.1,0-18.1,14.8-32.9,32.9-32.9s6.6.6,9.7,1.5v-30.7c-38.9.9-70.3,32.8-70.3,72s7.3,36.2,19.3,49c11.7,8.2,25.9,13,41.3,13,39.7,0,72-32.3,72-72h0v.1Z"/>
      </g>
    </g>
  </g>
</svg>