<?xml version="1.0" encoding="UTF-8"?>
<svg id="Layer_2" data-name="Layer 2" xmlns="http://www.w3.org/2000/svg" viewBox="0 0 257.6 257.6">
  <defs>
    <style>
      .cls-1 {
        fill: #fff;
      }

      .cls-2 {
        fill: #f03;
      }
    </style>
  </defs>
  <g id="Layer_1-2" data-name="Layer 1">
    <g>
      <path class="cls-2" d="M128.8,257.6c71.2,0,128.8-57.6,128.8-128.8S200,0,128.8,0,0,57.6,0,128.8s57.6,128.8,128.8,128.8Z"/>
      <path class="cls-1" d="M128.8,60.8c37.4,0,67.8,30.5,67.8,67.8s-30.5,67.8-67.8,67.8-67.8-30.5-67.8-67.8,30.5-67.8,67.8-67.8ZM128.8,50.4c-43.2,0-78.3,35.1-78.3,78.3s35.1,78.3,78.3,78.3,78.3-35.1,78.3-78.3-35.1-78.3-78.3-78.3Z"/>
      <path class="cls-1" d="M104.1,166.8l65.9-38-65.9-38v76.2h0v-.2Z"/>
    </g>
  </g>
</svg>